<svg width="15" height="15" viewBox="0 0 15 15" fill="none" xmlns="http://www.w3.org/2000/svg">
<path d="M7.37845 10.7323C6.45055 10.7323 5.65961 10.4053 5.00561 9.75129C4.35161 9.09729 4.02461 8.30635 4.02461 7.37845C4.02461 6.45055 4.35161 5.65961 5.00561 5.00561C5.65961 4.35161 6.45055 4.02461 7.37845 4.02461C8.30635 4.02461 9.09729 4.35161 9.75129 5.00561C10.4053 5.65961 10.7323 6.45055 10.7323 7.37845C10.7323 8.30635 10.4053 9.09729 9.75129 9.75129C9.09729 10.4053 8.30635 10.7323 7.37845 10.7323ZM0.670768 8.04922C0.480717 8.04922 0.32141 7.98494 0.192846 7.85637C0.064282 7.72781 0 7.5685 0 7.37845C0 7.1884 0.064282 7.02909 0.192846 6.90053C0.32141 6.77196 0.480717 6.70768 0.670768 6.70768H2.0123C2.20236 6.70768 2.36166 6.77196 2.49023 6.90053C2.61879 7.02909 2.68307 7.1884 2.68307 7.37845C2.68307 7.5685 2.61879 7.72781 2.49023 7.85637C2.36166 7.98494 2.20236 8.04922 2.0123 8.04922H0.670768ZM12.7446 8.04922C12.5545 8.04922 12.3952 7.98494 12.2667 7.85637C12.1381 7.72781 12.0738 7.5685 12.0738 7.37845C12.0738 7.1884 12.1381 7.02909 12.2667 6.90053C12.3952 6.77196 12.5545 6.70768 12.7446 6.70768H14.0861C14.2762 6.70768 14.4355 6.77196 14.5641 6.90053C14.6926 7.02909 14.7569 7.1884 14.7569 7.37845C14.7569 7.5685 14.6926 7.72781 14.5641 7.85637C14.4355 7.98494 14.2762 8.04922 14.0861 8.04922H12.7446ZM7.37845 2.68307C7.1884 2.68307 7.02909 2.61879 6.90053 2.49023C6.77196 2.36166 6.70768 2.20236 6.70768 2.0123V0.670768C6.70768 0.480717 6.77196 0.32141 6.90053 0.192846C7.02909 0.064282 7.1884 0 7.37845 0C7.5685 0 7.72781 0.064282 7.85637 0.192846C7.98494 0.32141 8.04922 0.480717 8.04922 0.670768V2.0123C8.04922 2.20236 7.98494 2.36166 7.85637 2.49023C7.72781 2.61879 7.5685 2.68307 7.37845 2.68307ZM7.37845 14.7569C7.1884 14.7569 7.02909 14.6926 6.90053 14.5641C6.77196 14.4355 6.70768 14.2762 6.70768 14.0861V12.7446C6.70768 12.5545 6.77196 12.3952 6.90053 12.2667C7.02909 12.1381 7.1884 12.0738 7.37845 12.0738C7.5685 12.0738 7.72781 12.1381 7.85637 12.2667C7.98494 12.3952 8.04922 12.5545 8.04922 12.7446V14.0861C8.04922 14.2762 7.98494 14.4355 7.85637 14.5641C7.72781 14.6926 7.5685 14.7569 7.37845 14.7569ZM3.11907 4.05815L2.398 3.35384C2.26384 3.23087 2.19956 3.07435 2.20515 2.8843C2.21074 2.69425 2.27502 2.53215 2.398 2.398C2.53215 2.26384 2.69425 2.19677 2.8843 2.19677C3.07435 2.19677 3.23087 2.26384 3.35384 2.398L4.05815 3.11907C4.18112 3.25323 4.24261 3.40974 4.24261 3.58861C4.24261 3.76748 4.18112 3.92399 4.05815 4.05815C3.93517 4.1923 3.78146 4.25658 3.59699 4.25099C3.41253 4.2454 3.25323 4.18112 3.11907 4.05815ZM11.4031 12.3589L10.6988 11.6378C10.5758 11.5037 10.5143 11.3444 10.5143 11.1599C10.5143 10.9754 10.5758 10.8217 10.6988 10.6988C10.8217 10.5646 10.9754 10.5003 11.1599 10.5059C11.3444 10.5115 11.5037 10.5758 11.6378 10.6988L12.3589 11.4031C12.4931 11.526 12.5573 11.6825 12.5518 11.8726C12.5462 12.0626 12.4819 12.2248 12.3589 12.3589C12.2248 12.4931 12.0626 12.5601 11.8726 12.5601C11.6825 12.5601 11.526 12.4931 11.4031 12.3589ZM10.6988 4.05815C10.5646 3.93517 10.5003 3.78146 10.5059 3.59699C10.5115 3.41253 10.5758 3.25323 10.6988 3.11907L11.4031 2.398C11.526 2.26384 11.6825 2.19956 11.8726 2.20515C12.0626 2.21074 12.2248 2.27502 12.3589 2.398C12.4931 2.53215 12.5601 2.69425 12.5601 2.8843C12.5601 3.07435 12.4931 3.23087 12.3589 3.35384L11.6378 4.05815C11.5037 4.18112 11.3472 4.24261 11.1683 4.24261C10.9894 4.24261 10.8329 4.18112 10.6988 4.05815ZM2.398 12.3589C2.26384 12.2248 2.19677 12.0626 2.19677 11.8726C2.19677 11.6825 2.26384 11.526 2.398 11.4031L3.11907 10.6988C3.25323 10.5758 3.41253 10.5143 3.59699 10.5143C3.78146 10.5143 3.93517 10.5758 4.05815 10.6988C4.1923 10.8217 4.25658 10.9754 4.25099 11.1599C4.2454 11.3444 4.18112 11.5037 4.05815 11.6378L3.35384 12.3589C3.23087 12.4931 3.07435 12.5573 2.8843 12.5518C2.69425 12.5462 2.53215 12.4819 2.398 12.3589Z" fill="white"/>
</svg>
