<svg width="60" height="60" viewBox="0 0 60 60" fill="none" xmlns="http://www.w3.org/2000/svg">
<rect width="60" height="60" rx="12" fill="#6750A4"/>
<path d="M34.38 42.232C34.38 42.4667 33.7187 42.6587 32.396 42.808C31.0947 42.936 29.7827 43 28.46 43C27.1587 43 26.3267 42.9467 25.964 42.84C25.6227 42.712 25.452 42.5093 25.452 42.232V28.472H21.004C20.7693 28.472 20.5667 28.1733 20.396 27.576C20.2253 26.9787 20.14 26.0933 20.14 24.92C20.14 23.7253 20.268 22.6587 20.524 21.72C20.78 20.76 21.1213 20.28 21.548 20.28H38.86C39.18 20.28 39.3933 20.5787 39.5 21.176C39.628 21.7733 39.692 22.6373 39.692 23.768C39.692 24.8987 39.5747 25.9653 39.34 26.968C39.1053 27.9707 38.7853 28.472 38.38 28.472H34.38V42.232Z" fill="white"/>
</svg>
