<svg width="17" height="17" viewBox="0 0 17 17" fill="none" xmlns="http://www.w3.org/2000/svg">
<mask id="mask0_4_6800" style="mask-type:alpha" maskUnits="userSpaceOnUse" x="0" y="0" width="17" height="17">
<rect width="16.0984" height="16.0984" fill="#D9D9D9"/>
</mask>
<g mask="url(#mask0_4_6800)">
<path d="M8.04863 14.0863C6.36053 14.0863 4.93236 13.5022 3.7641 12.334C2.59585 11.1657 2.01172 9.73753 2.01172 8.04943C2.01172 6.50666 2.51479 5.16792 3.52095 4.0332C4.5271 2.89849 5.81274 2.2361 7.37786 2.04605C7.5232 2.02369 7.65176 2.04326 7.76356 2.10475C7.87535 2.16623 7.96479 2.24728 8.03186 2.3479C8.09894 2.44851 8.13527 2.5659 8.14086 2.70005C8.14645 2.83421 8.10453 2.96277 8.01509 3.08574C7.82504 3.37641 7.68251 3.68385 7.58748 4.00805C7.49245 4.33225 7.44494 4.67323 7.44494 5.03097C7.44494 6.03712 7.7971 6.89235 8.5014 7.59666C9.20571 8.30097 10.0609 8.65312 11.0671 8.65312C11.4137 8.65312 11.7574 8.60281 12.0984 8.5022C12.4394 8.40158 12.744 8.26184 13.0123 8.08297C13.1353 8.00471 13.2611 7.96838 13.3896 7.97397C13.5182 7.97956 13.6328 8.0103 13.7334 8.0662C13.8452 8.1221 13.9318 8.20594 13.9933 8.31774C14.0548 8.42953 14.0744 8.56368 14.052 8.7202C13.8955 10.263 13.2387 11.543 12.0816 12.5603C10.9246 13.5777 9.58022 14.0863 8.04863 14.0863Z" fill="white"/>
</g>
</svg>
