<svg width="17" height="17" viewBox="0 0 17 17" fill="none" xmlns="http://www.w3.org/2000/svg">
<mask id="mask0_4_6794" style="mask-type:alpha" maskUnits="userSpaceOnUse" x="0" y="0" width="17" height="17">
<rect width="16.2947" height="16.2947" fill="#D9D9D9"/>
</mask>
<g mask="url(#mask0_4_6794)">
<path d="M8.14763 14.2577C6.43895 14.2577 4.99336 13.6664 3.81086 12.4839C2.62836 11.3014 2.03711 9.85584 2.03711 8.14715C2.03711 6.58558 2.54632 5.23051 3.56474 4.08196C4.58316 2.9334 5.88448 2.26294 7.46869 2.07058C7.61579 2.04794 7.74592 2.06775 7.85908 2.12998C7.97224 2.19222 8.06277 2.27426 8.13066 2.3761C8.19856 2.47794 8.23533 2.59676 8.24099 2.73255C8.24665 2.86834 8.20421 2.99847 8.11369 3.12294C7.92132 3.41715 7.77704 3.72834 7.68086 4.0565C7.58467 4.38465 7.53658 4.72979 7.53658 5.09189C7.53658 6.11031 7.89303 6.97597 8.60592 7.68886C9.31882 8.40176 10.1845 8.75821 11.2029 8.75821C11.5537 8.75821 11.9016 8.70729 12.2468 8.60544C12.5919 8.5036 12.9003 8.36215 13.1718 8.1811C13.2963 8.10189 13.4236 8.06511 13.5538 8.07077C13.6839 8.07643 13.7999 8.10755 13.9017 8.16413C14.0149 8.22071 14.1026 8.30558 14.1648 8.41873C14.227 8.53189 14.2468 8.66768 14.2242 8.8261C14.0658 10.3877 13.401 11.6833 12.2298 12.7131C11.0586 13.7428 9.6979 14.2577 8.14763 14.2577ZM8.14763 12.8998C9.14342 12.8998 10.0374 12.6254 10.8295 12.0766C11.6216 11.5277 12.1987 10.812 12.5608 9.92939C12.3345 9.98597 12.1082 10.0312 11.8818 10.0652C11.6555 10.0991 11.4292 10.1161 11.2029 10.1161C9.81106 10.1161 8.62573 9.62669 7.64691 8.64788C6.6681 7.66906 6.17869 6.48373 6.17869 5.09189C6.17869 4.86558 6.19566 4.63926 6.22961 4.41294C6.26356 4.18663 6.30882 3.96031 6.3654 3.734C5.48277 4.0961 4.76704 4.67321 4.21823 5.46531C3.66941 6.25742 3.395 7.15136 3.395 8.14715C3.395 9.45979 3.85895 10.58 4.78685 11.5079C5.71474 12.4358 6.835 12.8998 8.14763 12.8998Z" fill="#625B71"/>
</g>
</svg>
