<svg width="215" height="40" viewBox="0 0 215 40" fill="none" xmlns="http://www.w3.org/2000/svg">
<path d="M24.88 32.232C24.88 32.4667 24.2187 32.6587 22.896 32.808C21.5947 32.936 20.2827 33 18.96 33C17.6587 33 16.8267 32.9467 16.464 32.84C16.1227 32.712 15.952 32.5093 15.952 32.232V18.472H11.504C11.2693 18.472 11.0667 18.1733 10.896 17.576C10.7253 16.9787 10.64 16.0933 10.64 14.92C10.64 13.7253 10.768 12.6587 11.024 11.72C11.28 10.76 11.6213 10.28 12.048 10.28H29.36C29.68 10.28 29.8933 10.5787 30 11.176C30.128 11.7733 30.192 12.6373 30.192 13.768C30.192 14.8987 30.0747 15.9653 29.84 16.968C29.6053 17.9707 29.2853 18.472 28.88 18.472H24.88V32.232ZM37.0188 33.288C35.0774 33.288 33.5521 32.8293 32.4428 31.912C31.9948 31.528 31.6001 30.9627 31.2588 30.216C30.9388 29.4693 30.7788 28.5947 30.7788 27.592C30.7788 26.5893 31.0134 25.7147 31.4828 24.968C31.9734 24.2213 32.5601 23.6453 33.2428 23.24C33.9254 22.8347 34.7254 22.504 35.6428 22.248C37.0294 21.8853 38.5548 21.704 40.2188 21.704H41.2748C41.2748 20.8293 40.9761 20.2107 40.3788 19.848C40.1228 19.6987 39.7281 19.624 39.1948 19.624C38.6828 19.624 38.0534 19.7627 37.3068 20.04C36.5814 20.3173 35.9734 20.6053 35.4828 20.904C34.9921 21.1813 34.6614 21.32 34.4908 21.32C34.1068 21.32 33.5841 20.8187 32.9228 19.816C32.2614 18.792 31.9308 17.864 31.9308 17.032C31.9308 16.7547 32.3254 16.392 33.1148 15.944C33.9041 15.496 35.0134 15.0907 36.4428 14.728C37.8934 14.344 39.3014 14.152 40.6668 14.152C42.0321 14.152 43.2054 14.2693 44.1868 14.504C45.1894 14.7173 46.0001 14.984 46.6188 15.304C47.2588 15.624 47.7921 16.0507 48.2188 16.584C48.6668 17.1173 48.9974 17.5973 49.2108 18.024C49.4454 18.4507 49.6161 19.0053 49.7228 19.688C49.8721 20.4773 49.9468 21.448 49.9468 22.6V32.232C49.9468 32.4667 49.3708 32.6587 48.2188 32.808C47.0881 32.936 45.9574 33 44.8268 33C43.7174 33 42.9921 32.968 42.6508 32.904C42.3308 32.84 42.1388 32.7653 42.0748 32.68C42.0108 32.5947 41.9574 32.4453 41.9148 32.232L41.6588 30.408H41.4028C40.8694 32.328 39.4081 33.288 37.0188 33.288ZM41.3068 27.976V24.232C40.7521 24.232 40.3041 24.4667 39.9628 24.936C39.6214 25.4053 39.4508 25.9387 39.4508 26.536C39.4508 27.944 39.7708 28.648 40.4108 28.648C40.6881 28.648 40.9014 28.584 41.0508 28.456C41.2214 28.3067 41.3068 28.1467 41.3068 27.976ZM60.9928 33.288C57.4514 33.288 54.8594 32.9467 53.2168 32.264C52.3848 31.9013 51.9688 31.5493 51.9688 31.208C51.9688 30.3333 52.2248 29.3093 52.7368 28.136C53.2488 26.9627 53.6968 26.376 54.0808 26.376C54.2941 26.376 55.0088 26.6107 56.2248 27.08C57.4621 27.5493 58.4968 27.784 59.3288 27.784C60.1821 27.784 60.7368 27.7307 60.9928 27.624C61.2701 27.5173 61.4088 27.3147 61.4088 27.016C61.4088 26.696 61.1954 26.4507 60.7688 26.28C60.3421 26.088 59.8088 25.96 59.1688 25.896C58.5288 25.832 57.8354 25.704 57.0888 25.512C56.3634 25.32 55.6808 25.0747 55.0408 24.776C54.4008 24.4773 53.8674 23.9867 53.4408 23.304C53.0141 22.6 52.8008 21.8533 52.8008 21.064C52.8008 20.2533 52.8221 19.656 52.8648 19.272C52.9074 18.8667 53.0781 18.312 53.3768 17.608C53.6968 16.8827 54.1341 16.296 54.6888 15.848C55.2648 15.4 56.1394 14.9947 57.3128 14.632C58.5074 14.2693 59.8408 14.088 61.3128 14.088C62.7848 14.088 64.0114 14.1413 64.9928 14.248C65.9954 14.3333 66.7741 14.4507 67.3288 14.6C67.9048 14.7493 68.3741 14.92 68.7368 15.112C69.3554 15.432 69.6648 15.784 69.6648 16.168C69.6648 17 69.3661 17.96 68.7688 19.048C68.1714 20.136 67.6914 20.68 67.3288 20.68C66.9874 20.68 66.2301 20.4987 65.0568 20.136C63.8834 19.752 63.0194 19.56 62.4648 19.56C61.5688 19.56 61.1208 19.816 61.1208 20.328C61.1208 20.648 61.4194 20.8933 62.0168 21.064C62.6354 21.2133 63.3714 21.3733 64.2248 21.544C65.0781 21.7147 65.9314 21.96 66.7848 22.28C67.6594 22.5787 68.3954 23.1333 68.9928 23.944C69.6114 24.7547 69.9208 25.7787 69.9208 27.016C69.9208 31.1973 66.9448 33.288 60.9928 33.288ZM80.5912 32.232C80.5912 32.4667 79.9939 32.6587 78.7992 32.808C77.6046 32.936 76.3566 33 75.0552 33C73.7539 33 72.9112 32.9467 72.5272 32.84C72.1432 32.712 71.9512 32.5093 71.9512 32.232V10.088C71.9512 9.61867 72.5486 9.16 73.7432 8.712C74.9592 8.264 76.2606 8.04 77.6472 8.04C79.6099 8.04 80.5912 8.53067 80.5912 9.512V21.48H81.0072C82.0312 16.5947 82.7886 14.152 83.2793 14.152C84.5166 14.152 86.0099 14.44 87.7593 15.016C89.5086 15.592 90.3832 16.232 90.3832 16.936C90.3832 17.448 89.9566 18.4293 89.1033 19.88C88.2499 21.3307 87.3646 22.5147 86.4473 23.432C89.4979 27.08 91.0233 29.2453 91.0233 29.928C91.0233 30.568 90.0526 31.3467 88.1112 32.264C86.1699 33.1813 84.8046 33.64 84.0153 33.64C83.6313 33.64 83.2259 33.1813 82.7992 32.264C82.3726 31.3253 81.9139 29.928 81.4233 28.072L80.5912 29.064V32.232ZM108.803 32.072C108.803 32.3493 108.152 32.5733 106.851 32.744C105.549 32.9147 104.237 33 102.915 33C101.613 33 100.771 32.9253 100.387 32.776C100.024 32.6267 99.8425 32.392 99.8425 32.072V11.496C99.8425 10.9413 100.536 10.5467 101.923 10.312C103.331 10.0773 105.101 9.96 107.235 9.96C109.368 9.96 110.744 9.97067 111.363 9.992C112.003 9.992 112.749 10.024 113.603 10.088C114.456 10.152 115.128 10.2587 115.619 10.408C116.131 10.5573 116.685 10.7493 117.283 10.984C117.901 11.2187 118.381 11.528 118.723 11.912C119.064 12.2747 119.395 12.712 119.715 13.224C120.291 14.1413 120.579 15.4533 120.579 17.16C120.579 18.8453 120.291 20.2747 119.715 21.448C119.16 22.6 118.413 23.4747 117.475 24.072C119.928 27.9333 121.155 30.3867 121.155 31.432C121.155 32.4773 119.053 33 114.851 33C113.635 33 112.792 32.9467 112.323 32.84C111.853 32.7333 111.555 32.4987 111.427 32.136L109.347 25.544L108.803 25.512V32.072ZM108.803 20.584H109.635C110.872 20.584 111.491 19.624 111.491 17.704C111.491 16.7227 111.32 16.0293 110.979 15.624C110.659 15.2187 110.285 15.016 109.859 15.016H108.803V20.584ZM128.769 33.288C126.827 33.288 125.302 32.8293 124.193 31.912C123.745 31.528 123.35 30.9627 123.009 30.216C122.689 29.4693 122.529 28.5947 122.529 27.592C122.529 26.5893 122.763 25.7147 123.233 24.968C123.723 24.2213 124.31 23.6453 124.993 23.24C125.675 22.8347 126.475 22.504 127.393 22.248C128.779 21.8853 130.305 21.704 131.969 21.704H133.025C133.025 20.8293 132.726 20.2107 132.129 19.848C131.873 19.6987 131.478 19.624 130.945 19.624C130.433 19.624 129.803 19.7627 129.057 20.04C128.331 20.3173 127.723 20.6053 127.233 20.904C126.742 21.1813 126.411 21.32 126.241 21.32C125.857 21.32 125.334 20.8187 124.673 19.816C124.011 18.792 123.681 17.864 123.681 17.032C123.681 16.7547 124.075 16.392 124.865 15.944C125.654 15.496 126.763 15.0907 128.193 14.728C129.643 14.344 131.051 14.152 132.417 14.152C133.782 14.152 134.955 14.2693 135.937 14.504C136.939 14.7173 137.75 14.984 138.369 15.304C139.009 15.624 139.542 16.0507 139.969 16.584C140.417 17.1173 140.747 17.5973 140.961 18.024C141.195 18.4507 141.366 19.0053 141.473 19.688C141.622 20.4773 141.697 21.448 141.697 22.6V32.232C141.697 32.4667 141.121 32.6587 139.969 32.808C138.838 32.936 137.707 33 136.577 33C135.467 33 134.742 32.968 134.401 32.904C134.081 32.84 133.889 32.7653 133.825 32.68C133.761 32.5947 133.707 32.4453 133.665 32.232L133.409 30.408H133.153C132.619 32.328 131.158 33.288 128.769 33.288ZM133.057 27.976V24.232C132.502 24.232 132.054 24.4667 131.713 24.936C131.371 25.4053 131.201 25.9387 131.201 26.536C131.201 27.944 131.521 28.648 132.161 28.648C132.438 28.648 132.651 28.584 132.801 28.456C132.971 28.3067 133.057 28.1467 133.057 27.976ZM150.055 33.288C149.265 33.288 148.529 33.1707 147.847 32.936C147.164 32.7013 146.599 32.4133 146.151 32.072C145.724 31.7307 145.351 31.272 145.031 30.696C144.711 30.12 144.465 29.576 144.295 29.064C144.124 28.5307 143.996 27.88 143.911 27.112C143.783 25.9813 143.719 24.6907 143.719 23.24C143.719 20.2747 144.263 18.024 145.351 16.488C146.439 14.9307 147.932 14.152 149.831 14.152C151.772 14.152 153.18 14.6107 154.055 15.528C154.247 15.7413 154.396 15.9973 154.503 16.296H154.759L154.375 14.088V10.088C154.375 9.61867 154.972 9.16 156.167 8.712C157.361 8.264 158.652 8.04 160.039 8.04C161.489 8.04 162.417 8.31733 162.823 8.872C162.972 9.08533 163.047 9.29867 163.047 9.512V32.232C163.047 32.4667 162.449 32.6587 161.255 32.808C160.081 32.936 158.94 33 157.831 33C156.743 33 156.039 32.968 155.719 32.904C155.42 32.8187 155.228 32.7333 155.143 32.648C155.079 32.5627 155.036 32.424 155.015 32.232L154.759 30.408H154.503C154.311 31.1547 153.927 31.784 153.351 32.296C152.625 32.9573 151.527 33.288 150.055 33.288ZM153.639 28.616C153.98 28.616 154.236 28.4027 154.407 27.976V19.432C154.407 19.2187 154.289 19.0587 154.055 18.952C153.841 18.824 153.649 18.76 153.479 18.76C152.753 18.76 152.391 20.424 152.391 23.752C152.391 25.5227 152.487 26.7813 152.679 27.528C152.892 28.2533 153.212 28.616 153.639 28.616ZM171.469 33.288C169.527 33.288 168.002 32.8293 166.893 31.912C166.445 31.528 166.05 30.9627 165.709 30.216C165.389 29.4693 165.229 28.5947 165.229 27.592C165.229 26.5893 165.463 25.7147 165.933 24.968C166.423 24.2213 167.01 23.6453 167.693 23.24C168.375 22.8347 169.175 22.504 170.093 22.248C171.479 21.8853 173.005 21.704 174.669 21.704H175.725C175.725 20.8293 175.426 20.2107 174.829 19.848C174.573 19.6987 174.178 19.624 173.645 19.624C173.133 19.624 172.503 19.7627 171.757 20.04C171.031 20.3173 170.423 20.6053 169.933 20.904C169.442 21.1813 169.111 21.32 168.941 21.32C168.557 21.32 168.034 20.8187 167.373 19.816C166.711 18.792 166.381 17.864 166.381 17.032C166.381 16.7547 166.775 16.392 167.565 15.944C168.354 15.496 169.463 15.0907 170.893 14.728C172.343 14.344 173.751 14.152 175.117 14.152C176.482 14.152 177.655 14.2693 178.637 14.504C179.639 14.7173 180.45 14.984 181.069 15.304C181.709 15.624 182.242 16.0507 182.669 16.584C183.117 17.1173 183.447 17.5973 183.661 18.024C183.895 18.4507 184.066 19.0053 184.173 19.688C184.322 20.4773 184.397 21.448 184.397 22.6V32.232C184.397 32.4667 183.821 32.6587 182.669 32.808C181.538 32.936 180.407 33 179.277 33C178.167 33 177.442 32.968 177.101 32.904C176.781 32.84 176.589 32.7653 176.525 32.68C176.461 32.5947 176.407 32.4453 176.365 32.232L176.109 30.408H175.853C175.319 32.328 173.858 33.288 171.469 33.288ZM175.757 27.976V24.232C175.202 24.232 174.754 24.4667 174.413 24.936C174.071 25.4053 173.901 25.9387 173.901 26.536C173.901 27.944 174.221 28.648 174.861 28.648C175.138 28.648 175.351 28.584 175.501 28.456C175.671 28.3067 175.757 28.1467 175.757 27.976ZM195.379 22.888V32.232C195.379 32.4667 194.771 32.6587 193.555 32.808C192.36 32.936 191.112 33 189.811 33C188.531 33 187.699 32.9467 187.315 32.84C186.931 32.712 186.739 32.5093 186.739 32.232V16.456C186.739 16.0507 187.325 15.6133 188.499 15.144C189.693 14.6747 190.984 14.44 192.371 14.44C193.779 14.44 194.568 14.824 194.739 15.592L195.059 17.064H195.283C195.581 16.2533 196.296 15.5707 197.427 15.016C198.557 14.44 199.688 14.152 200.819 14.152C201.949 14.152 202.739 14.3333 203.187 14.696C203.656 15.0587 203.891 15.528 203.891 16.104C203.891 16.6587 203.848 17.3733 203.763 18.248C203.677 19.1227 203.464 20.072 203.123 21.096C202.803 22.12 202.376 22.632 201.843 22.632C201.629 22.632 200.957 22.472 199.827 22.152C198.696 21.832 197.757 21.672 197.011 21.672C196.285 21.672 195.827 21.7787 195.635 21.992C195.464 22.2053 195.379 22.504 195.379 22.888Z" fill="#6750A4"/>
</svg>
